HIERARCHY
ROOT Root
{
  OFFSET 0.0 0.0 0.0
  CHANNELS 6 Xposition Yposition Zposition Zrotation Yrotation Xrotation
  JOINT Hips
  {
    OFFSET 0.0 100.0 0.0
    CHANNELS 6 Xposition Yposition Zposition Zrotation Yrotation Xrotation
    JOINT Spine1
    {
      OFFSET 5.003913 -0.037094 -0.013727
      CHANNELS 3 Zrotation Yrotation Xrotation
      JOINT Spine2
      {
        OFFSET 7.125363 -1e-06 0.0
        CHANNELS 3 Zrotation Yrotation Xrotation
        JOINT Chest
        {
          OFFSET 7.594027 1e-06 0.0
          CHANNELS 3 Zrotation Yrotation Xrotation
          JOINT Neck1
          {
            OFFSET 26.313086 -0.460272 -0.181672
            CHANNELS 3 Zrotation Yrotation Xrotation
            JOINT Neck2
            {
              OFFSET 8.045911 0.0 0.0
              CHANNELS 3 Zrotation Yrotation Xrotation
              JOINT Head
              {
                OFFSET 6.432774 0.0 0.0
                CHANNELS 3 Zrotation Yrotation Xrotation
                JOINT HeadEnd
                {
                  OFFSET 16.169773 0.06451 0.00362
                  CHANNELS 3 Zrotation Yrotation Xrotation
                }
                JOINT Jaw
                {
                  OFFSET 0.108741 3.12938 0.002639
                  CHANNELS 3 Zrotation Yrotation Xrotation
                }
                JOINT LeftEye
                {
                  OFFSET 4.45173 8.166359 3.206392
                  CHANNELS 3 Zrotation Yrotation Xrotation
                }
                JOINT RightEye
                {
                  OFFSET 4.436895 8.135758 -3.222429
                  CHANNELS 3 Zrotation Yrotation Xrotation
                }
              }
            }
          }
          JOINT LeftShoulder
          {
            OFFSET 23.218927 5.195579 1.621656
            CHANNELS 3 Zrotation Yrotation Xrotation
            JOINT LeftArm
            {
              OFFSET 15.902118 2e-06 -2e-06
              CHANNELS 3 Zrotation Yrotation Xrotation
              JOINT LeftForeArm
              {
                OFFSET 28.739307 0.0 -1e-06
                CHANNELS 3 Zrotation Yrotation Xrotation
                JOINT LeftHand
                {
                  OFFSET 27.093981 -4e-06 0.0
                  CHANNELS 3 Zrotation Yrotation Xrotation
                  JOINT LeftHandThumb1
                  {
                    OFFSET 2.276781 3.380274 0.83384
                    CHANNELS 3 Zrotation Yrotation Xrotation
                    JOINT LeftHandThumb2
                    {
                      OFFSET 4.705309 -1e-06 -1e-06
                      CHANNELS 3 Zrotation Yrotation Xrotation
                      JOINT LeftHandThumb3
                      {
                        OFFSET 2.798515 0.0 3e-06
                        CHANNELS 3 Zrotation Yrotation Xrotation
                        JOINT LeftHandThumbEnd
                        {
                          OFFSET 3.180793 4e-06 -4e-06
                          CHANNELS 3 Zrotation Yrotation Xrotation
                        }
                      }
                    }
                  }
                  JOINT LeftHandIndex1
                  {
                    OFFSET 3.247786 2.352677 0.137192
                    CHANNELS 3 Zrotation Yrotation Xrotation
                    JOINT LeftHandIndex2
                    {
                      OFFSET 6.367095 1e-06 0.0
                      CHANNELS 3 Zrotation Yrotation Xrotation
                      JOINT LeftHandIndex3
                      {
                        OFFSET 3.662364 0.0 0.0
                        CHANNELS 3 Zrotation Yrotation Xrotation
                        JOINT LeftHandIndex4
                        {
                          OFFSET 2.329242 4e-06 -4e-06
                          CHANNELS 3 Zrotation Yrotation Xrotation
                          JOINT LeftHandIndexEnd
                          {
                            OFFSET 2.767823 1e-06 0.0
                            CHANNELS 3 Zrotation Yrotation Xrotation
                          }
                        }
                      }
                    }
                  }
                  JOINT LeftHandMiddle1
                  {
                    OFFSET 3.163612 0.945023 -0.406112
                    CHANNELS 3 Zrotation Yrotation Xrotation
                    JOINT LeftHandMiddle2
                    {
                      OFFSET 6.276789 3e-06 0.0
                      CHANNELS 3 Zrotation Yrotation Xrotation
                      JOINT LeftHandMiddle3
                      {
                        OFFSET 4.35652 -1e-06 4e-06
                        CHANNELS 3 Zrotation Yrotation Xrotation
                        JOINT LeftHandMiddle4
                        {
                          OFFSET 2.996877 0.0 8e-06
                          CHANNELS 3 Zrotation Yrotation Xrotation
                          JOINT LeftHandMiddleEnd
                          {
                            OFFSET 2.323256 3e-06 -4e-06
                            CHANNELS 3 Zrotation Yrotation Xrotation
                          }
                        }
                      }
                    }
                  }
                  JOINT LeftHandRing1
                  {
                    OFFSET 2.882606 -0.309162 0.107445
                    CHANNELS 3 Zrotation Yrotation Xrotation
                    JOINT LeftHandRing2
                    {
                      OFFSET 6.033198 0.0 4e-06
                      CHANNELS 3 Zrotation Yrotation Xrotation
                      JOINT LeftHandRing3
                      {
                        OFFSET 4.350578 3e-06 0.0
                        CHANNELS 3 Zrotation Yrotation Xrotation
                        JOINT LeftHandRing4
                        {
                          OFFSET 2.651321 2e-06 -7e-06
                          CHANNELS 3 Zrotation Yrotation Xrotation
                          JOINT LeftHandRingEnd
                          {
                            OFFSET 1.937663 1e-06 -4e-06
                            CHANNELS 3 Zrotation Yrotation Xrotation
                          }
                        }
                      }
                    }
                  }
                  JOINT LeftHandPinky1
                  {
                    OFFSET 2.865315 -1.525436 0.575687
                    CHANNELS 3 Zrotation Yrotation Xrotation
                    JOINT LeftHandPinky2
                    {
                      OFFSET 5.54936 1e-06 -8e-06
                      CHANNELS 3 Zrotation Yrotation Xrotation
                      JOINT LeftHandPinky3
                      {
                        OFFSET 3.070974 0.0 -4e-06
                        CHANNELS 3 Zrotation Yrotation Xrotation
                        JOINT LeftHandPinky4
                        {
                          OFFSET 1.549672 1e-06 0.0
                          CHANNELS 3 Zrotation Yrotation Xrotation
                          JOINT LeftHandPinkyEnd
                          {
                            OFFSET 1.952123 0.0 0.0
                            CHANNELS 3 Zrotation Yrotation Xrotation
                          }
                        }
                      }
                    }
                  }
                }
              }
            }
          }
          JOINT RightShoulder
          {
            OFFSET 23.161716 5.296122 -1.380114
            CHANNELS 3 Zrotation Yrotation Xrotation
            JOINT RightArm
            {
              OFFSET -16.027195 -2e-06 1.1e-05
              CHANNELS 3 Zrotation Yrotation Xrotation
              JOINT RightForeArm
              {
                OFFSET -28.736639 4e-06 2e-06
                CHANNELS 3 Zrotation Yrotation Xrotation
                JOINT RightHand
                {
                  OFFSET -27.133619 6e-06 0.0
                  CHANNELS 3 Zrotation Yrotation Xrotation
                  JOINT RightHandThumb1
                  {
                    OFFSET -2.274328 -3.351035 -0.83067
                    CHANNELS 3 Zrotation Yrotation Xrotation
                    JOINT RightHandThumb2
                    {
                      OFFSET -4.703594 -3e-06 2e-06
                      CHANNELS 3 Zrotation Yrotation Xrotation
                      JOINT RightHandThumb3
                      {
                        OFFSET -2.794935 -4e-06 -3e-06
                        CHANNELS 3 Zrotation Yrotation Xrotation
                        JOINT RightHandThumbEnd
                        {
                          OFFSET -3.183852 4e-06 1e-06
                          CHANNELS 3 Zrotation Yrotation Xrotation
                        }
                      }
                    }
                  }
                  JOINT RightHandIndex1
                  {
                    OFFSET -3.253496 -2.33755 -0.127667
                    CHANNELS 3 Zrotation Yrotation Xrotation
                    JOINT RightHandIndex2
                    {
                      OFFSET -6.344434 0.0 0.0
                      CHANNELS 3 Zrotation Yrotation Xrotation
                      JOINT RightHandIndex3
                      {
                        OFFSET -3.654871 0.0 -8e-06
                        CHANNELS 3 Zrotation Yrotation Xrotation
                        JOINT RightHandIndex4
                        {
                          OFFSET -2.327586 -1e-06 0.0
                          CHANNELS 3 Zrotation Yrotation Xrotation
                          JOINT RightHandIndexEnd
                          {
                            OFFSET -2.770001 3e-06 8e-06
                            CHANNELS 3 Zrotation Yrotation Xrotation
                          }
                        }
                      }
                    }
                  }
                  JOINT RightHandMiddle1
                  {
                    OFFSET -3.168223 -0.944764 0.411762
                    CHANNELS 3 Zrotation Yrotation Xrotation
                    JOINT RightHandMiddle2
                    {
                      OFFSET -6.266691 -1e-06 -4e-06
                      CHANNELS 3 Zrotation Yrotation Xrotation
                      JOINT RightHandMiddle3
                      {
                        OFFSET -4.348901 0.0 0.0
                        CHANNELS 3 Zrotation Yrotation Xrotation
                        JOINT RightHandMiddle4
                        {
                          OFFSET -3.00024 2e-06 -4e-06
                          CHANNELS 3 Zrotation Yrotation Xrotation
                          JOINT RightHandMiddleEnd
                          {
                            OFFSET -2.321477 -4e-06 -4e-06
                            CHANNELS 3 Zrotation Yrotation Xrotation
                          }
                        }
                      }
                    }
                  }
                  JOINT RightHandRing1
                  {
                    OFFSET -2.885654 0.293261 -0.119232
                    CHANNELS 3 Zrotation Yrotation Xrotation
                    JOINT RightHandRing2
                    {
                      OFFSET -6.032835 -1e-06 -4e-06
                      CHANNELS 3 Zrotation Yrotation Xrotation
                      JOINT RightHandRing3
                      {
                        OFFSET -4.33881 0.0 -4e-06
                        CHANNELS 3 Zrotation Yrotation Xrotation
                        JOINT RightHandRing4
                        {
                          OFFSET -2.654903 -4e-06 -4e-06
                          CHANNELS 3 Zrotation Yrotation Xrotation
                          JOINT RightHandRingEnd
                          {
                            OFFSET -1.935122 0.0 4e-06
                            CHANNELS 3 Zrotation Yrotation Xrotation
                          }
                        }
                      }
                    }
                  }
                  JOINT RightHandPinky1
                  {
                    OFFSET -2.866241 1.503904 -0.60527
                    CHANNELS 3 Zrotation Yrotation Xrotation
                    JOINT RightHandPinky2
                    {
                      OFFSET -5.553177 -2e-06 0.0
                      CHANNELS 3 Zrotation Yrotation Xrotation
                      JOINT RightHandPinky3
                      {
                        OFFSET -3.062664 -1e-06 -4e-06
                        CHANNELS 3 Zrotation Yrotation Xrotation
                        JOINT RightHandPinky4
                        {
                          OFFSET -1.546529 2e-06 4e-06
                          CHANNELS 3 Zrotation Yrotation Xrotation
                          JOINT RightHandPinkyEnd
                          {
                            OFFSET -1.952341 0.0 -4e-06
                            CHANNELS 3 Zrotation Yrotation Xrotation
                          }
                        }
                      }
                    }
                  }
                }
              }
            }
          }
        }
      }
    }
    JOINT LeftLeg
    {
      OFFSET -8.443107 2.567604 10.043214
      CHANNELS 3 Zrotation Yrotation Xrotation
      JOINT LeftShin
      {
        OFFSET 43.229198 1e-06 -1e-06
        CHANNELS 3 Zrotation Yrotation Xrotation
        JOINT LeftFoot
        {
          OFFSET 42.298611 1e-06 1e-06
          CHANNELS 3 Zrotation Yrotation Xrotation
          JOINT LeftToeBase
          {
            OFFSET 14.165858 1e-06 0.0
            CHANNELS 3 Zrotation Yrotation Xrotation
            JOINT LeftToeEnd
            {
              OFFSET 6.7141 -0.234461 0.0
              CHANNELS 3 Zrotation Yrotation Xrotation
            }
          }
        }
      }
    }
    JOINT RightLeg
    {
      OFFSET -8.303923 2.592729 -10.047278
      CHANNELS 3 Zrotation Yrotation Xrotation
      JOINT RightShin
      {
        OFFSET -43.369682 0.0 1e-06
        CHANNELS 3 Zrotation Yrotation Xrotation
        JOINT RightFoot
        {
          OFFSET -42.260784 4e-06 2e-06
          CHANNELS 3 Zrotation Yrotation Xrotation
          JOINT RightToeBase
          {
            OFFSET -14.222245 -2e-06 -1e-06
            CHANNELS 3 Zrotation Yrotation Xrotation
            JOINT RightToeEnd
            {
              OFFSET -6.660062 0.232574 -2e-06
              CHANNELS 3 Zrotation Yrotation Xrotation
            }
          }
        }
      }
    }
  }
}
MOTION
Frames: 5
Frame Time: 0.03333333333333333
0.0 0.0 0.0 0.0 -0.0 0.0 0.911712 99.715714 1.359287 91.111229 2.501412 89.876297 -1.577385 -0.58569 0.059783 -11.46437 -0.71148 0.555756 18.176605 -1.751517 -1.723843 18.057713 3.113472 2.535567 -2.522724 -0.749627 -1.033846 -33.291569 -0.278608 -1.574435 5e-06 0.0 -0.0 0.029067 0.003564 -0.041448 0.054182 -0.00152 -0.039837 0.048502 0.00702 -0.041833 -102.606003 -76.462685 113.896835 48.333351 -65.654518 -3.570396 25.515688 0.106501 0.113901 2.772649 6.663712 11.282919 17.636629 -26.322731 52.41119 -19.466658 -14.395597 29.410389 0.0 -8.774821 -1e-06 15.900797 -18.139467 6.140172 -0.609776 -1.795654 -3.889326 -4.807087 -11.046811 -2.937851 3e-06 -20.976015 -0.0 -5.01997 -25.033552 -4.031882 6e-06 1e-06 -0.0 -10.634533 -5.686969 -3.565589 10.573271 -17.922949 -3.113899 0.0 -13.821209 -1e-06 -0.501778 -31.181505 -4.027014 -11.524917 -59.443874 7.365305 -13.982713 -7.150198 -2.875041 13.772727 -8.401491 -3.218241 0.347732 -34.211552 0.771654 -0.96303 -17.73337 2.62102 -0.0 1e-06 1e-06 -17.346418 -20.095217 -4.201782 21.757555 -1.638375 3.866428 1e-06 -6.338821 -0.0 -1.69759 -22.591745 -6.194006 -1e-06 -3e-06 -0.0 57.357552 -78.54969 135.496017 47.935532 -65.739487 -9.888865 27.01157 -0.143391 0.043738 4.881758 9.787444 10.211593 22.182116 -20.375898 49.933323 -16.701805 -16.74353 28.476526 -3e-06 -12.690598 1e-06 15.964747 -17.6724 2.88178 -0.10592 -1.513857 -4.275882 -5.03904 -5.612868 -2.953554 4e-06 -11.020523 -4e-06 -6.111298 -15.89533 -3.840469 0.0 -0.0 0.0 -10.283368 -5.680287 -4.341838 11.028292 -11.302402 -2.372635 -1.384269 -14.238577 -6.320117 -0.625439 -26.924183 -3.827598 -4.243866 -49.717262 -3.562403 -13.708523 -7.363476 -3.720937 18.141146 -14.052736 -3.242674 5e-06 -18.78727 -1e-06 -0.429712 -8.456045 2.555509 2e-06 0.0 -2e-06 -15.923532 -20.094479 -5.473586 30.41921 -7.190824 1.735928 1e-06 -8.162922 -0.0 -1.861904 -22.861469 -6.167939 -0.0 -4e-06 -1e-06 -176.171326 -0.746344 -8.071743 10.632406 -0.002908 -0.112431 -81.071983 -0.046548 -2.938771 -4.317036 1.44765 2.165133 -0.999999 0.0 0.0 1.125145 -5.888449 -1.047391 14.424511 -0.077155 0.092167 -81.687462 -2.91357 -5.815286 -4.056932 0.693867 1.717525 -1.000001 0.0 -0.0 
0.0 0.0 0.0 0.0 -0.0 0.0 0.906578 99.738297 1.379942 91.105026 2.458285 89.852982 -1.609424 -0.578601 0.045375 -11.461154 -0.697797 0.593395 18.156494 -1.767651 -1.767488 18.050776 3.14275 2.528536 -2.503141 -0.748428 -1.019757 -33.240562 -0.291813 -1.532588 6e-06 0.0 -0.0 0.025718 0.004505 -0.024305 0.066417 0.002416 -0.019548 0.060101 0.005117 -0.028063 -102.557236 -76.461334 113.896332 48.597504 -65.686005 -3.969804 25.314398 0.039734 0.062702 2.796216 6.690674 11.34622 17.636627 -26.322725 52.411186 -19.466665 -14.395598 29.410393 -1e-06 -8.774822 2e-06 15.923038 -18.114674 6.107426 -0.609778 -1.795656 -3.889328 -4.807088 -11.046813 -2.93785 4e-06 -20.976019 -4e-06 -5.019971 -25.03356 -4.031882 5e-06 0.0 -0.0 -10.634533 -5.686972 -3.565586 10.573277 -17.922955 -3.113903 2e-06 -13.82121 -3e-06 -0.501776 -31.181505 -4.027016 -11.487195 -59.430233 7.378353 -13.982714 -7.1502 -2.875041 13.772731 -8.401494 -3.218243 0.347739 -34.211555 0.771647 -0.963023 -17.733372 2.621016 0.0 0.0 -2e-06 -17.346424 -20.095224 -4.201782 21.757561 -1.638376 3.866427 2e-06 -6.338824 -2e-06 -1.697589 -22.591751 -6.194007 -2e-06 -4e-06 -0.0 57.412312 -78.56749 135.493439 48.230732 -65.726196 -10.30407 26.852411 -0.172076 0.028667 4.946513 9.728289 10.265164 22.182116 -20.375887 49.933315 -16.701811 -16.74353 28.476522 -2e-06 -12.690603 -2e-06 16.011442 -17.690472 2.860177 -0.105921 -1.513857 -4.275882 -5.039042 -5.612873 -2.953555 3e-06 -11.020523 -6e-06 -6.1113 -15.895332 -3.840469 -1e-06 -0.0 0.0 -10.283371 -5.68029 -4.341839 11.028291 -11.302402 -2.372634 -1.384271 -14.238582 -6.32012 -0.62544 -26.924191 -3.827605 -4.270637 -49.848492 -3.523079 -13.708527 -7.363478 -3.720938 18.141151 -14.052737 -3.242675 3e-06 -18.787271 -3e-06 -0.429712 -8.456046 2.555504 1e-06 0.0 -2e-06 -15.923539 -20.094486 -5.473584 30.419214 -7.190823 1.735929 1e-06 -8.162921 -2e-06 -1.861905 -22.861467 -6.167942 1e-06 -5e-06 -1e-06 -176.009796 -0.720909 -8.054726 10.240122 -0.000586 -0.063748 -80.910919 -0.045627 -3.048092 -4.300914 1.476776 2.177566 -0.999999 -0.0 0.0 1.208182 -5.869443 -1.00423 14.176485 -0.077478 0.10168 -81.571724 -2.979528 -5.825211 -4.036653 0.674435 1.714895 -1.000001 -0.0 -0.0 
0.0 0.0 0.0 0.0 -0.0 0.0 0.891441 99.747818 1.397983 91.111252 2.437844 89.827606 -1.631323 -0.57979 0.037629 -11.469363 -0.692181 0.604173 18.179468 -1.782456 -1.791419 18.049036 3.17007 2.542832 -2.525342 -0.745829 -1.031992 -33.158276 -0.320428 -1.532515 8e-06 -0.0 0.0 0.021854 0.004931 -0.01964 0.056315 0.00114 -0.013979 0.053344 0.006982 -0.024997 -102.552368 -76.474976 113.88623 48.61409 -65.737648 -4.15747 25.231646 -0.012144 0.024386 2.775773 6.720755 11.262164 17.636625 -26.322725 52.411182 -19.466652 -14.395594 29.410378 -0.0 -8.774819 1e-06 15.938771 -18.117197 6.087109 -0.609775 -1.795653 -3.889328 -4.807089 -11.046807 -2.937851 4e-06 -20.976011 -2e-06 -5.019968 -25.033545 -4.031878 6e-06 -1e-06 -3e-06 -10.634533 -5.686969 -3.565591 10.573271 -17.922947 -3.113897 2e-06 -13.821205 -3e-06 -0.501776 -31.181498 -4.027016 -11.490162 -59.401253 7.357423 -13.982711 -7.150198 -2.875042 13.772727 -8.401491 -3.218237 0.347737 -34.211544 0.771651 -0.963027 -17.733366 2.621019 1e-06 0.0 -1e-06 -17.346413 -20.095213 -4.201785 21.757555 -1.638374 3.866428 1e-06 -6.338821 1e-06 -1.697586 -22.59174 -6.194006 -1e-06 -4e-06 0.0 57.332035 -78.59259 135.620224 48.398384 -65.682076 -10.614949 26.81419 -0.196628 0.014753 4.962817 9.707444 10.246606 22.18211 -20.375891 49.933319 -16.701811 -16.743528 28.476522 -4e-06 -12.690601 -2e-06 16.035694 -17.679007 2.860711 -0.105922 -1.513858 -4.275879 -5.03904 -5.612869 -2.953555 5e-06 -11.02052 -6e-06 -6.111295 -15.89533 -3.840468 -1e-06 1e-06 -2e-06 -10.283369 -5.680288 -4.341836 11.028292 -11.302402 -2.372633 -1.384267 -14.238579 -6.32012 -0.625437 -26.924187 -3.827601 -4.286797 -49.906551 -3.509691 -13.708523 -7.363473 -3.720937 18.141148 -14.052738 -3.242678 5e-06 -18.787266 -3e-06 -0.429712 -8.456041 2.555505 2e-06 0.0 -1e-06 -15.923532 -20.094482 -5.473587 30.41921 -7.190825 1.735926 3e-06 -8.162922 -1e-06 -1.861902 -22.861467 -6.167944 -0.0 -3e-06 -1e-06 -175.912674 -0.697424 -8.018332 10.017042 -0.000318 -0.036197 -80.822113 -0.076578 -3.10302 -4.240095 1.486475 2.184803 -0.999999 0.0 0.0 1.232463 -5.862192 -0.960843 14.094495 -0.076526 0.107336 -81.534843 -3.056169 -5.857519 -3.962606 0.670072 1.715809 -1.000002 -0.0 0.0 
0.0 0.0 0.0 0.0 -0.0 0.0 0.881133 99.751556 1.412516 91.125328 2.425951 89.801506 -1.64482 -0.591285 0.040023 -11.481559 -0.686067 0.607059 18.2087 -1.794408 -1.80089 18.07229 3.177931 2.546781 -2.553467 -0.739078 -1.031186 -33.094223 -0.349522 -1.560908 7e-06 -0.0 -0.0 0.018811 0.004618 -0.020977 0.042739 -0.001347 -0.014903 0.041653 0.008654 -0.027222 -102.64579 -76.487602 113.988495 48.5592 -65.742828 -4.179639 25.221281 -0.02552 0.009232 2.737752 6.765885 11.189194 17.636629 -26.322727 52.411182 -19.466656 -14.395597 29.410385 -0.0 -8.774821 2e-06 15.917599 -18.094694 6.086575 -0.609776 -1.795655 -3.889327 -4.807088 -11.046809 -2.937848 5e-06 -20.976013 -2e-06 -5.019969 -25.033552 -4.031878 6e-06 1e-06 -1e-06 -10.634535 -5.686971 -3.565585 10.573272 -17.922947 -3.1139 2e-06 -13.821205 -1e-06 -0.501779 -31.181494 -4.027014 -11.496605 -59.370724 7.340213 -13.982714 -7.150198 -2.875038 13.772727 -8.401489 -3.218241 0.347738 -34.211544 0.771652 -0.963031 -17.73337 2.621022 1e-06 -0.0 -1e-06 -17.346418 -20.095215 -4.20178 21.757555 -1.638374 3.866426 1e-06 -6.338821 -0.0 -1.69759 -22.59174 -6.194004 -1e-06 -4e-06 -1e-06 57.215679 -78.601097 135.784058 48.506725 -65.628235 -10.800718 26.854204 -0.188906 0.013464 4.942923 9.660274 10.147777 22.182112 -20.375891 49.933319 -16.701817 -16.74353 28.476534 -5e-06 -12.690599 -2e-06 16.031908 -17.650791 2.870836 -0.10592 -1.513857 -4.27588 -5.039041 -5.61287 -2.953559 5e-06 -11.020525 -4e-06 -6.111296 -15.895336 -3.840471 -1e-06 1e-06 -1e-06 -10.283369 -5.680288 -4.341841 11.028295 -11.302406 -2.372635 -1.384267 -14.238583 -6.320117 -0.625433 -26.924194 -3.827606 -4.309663 -49.888458 -3.488444 -13.708526 -7.363476 -3.720938 18.14115 -14.052739 -3.242677 6e-06 -18.787271 -3e-06 -0.42971 -8.456048 2.555508 2e-06 -0.0 -1e-06 -15.923536 -20.094484 -5.473584 30.41921 -7.190827 1.735924 2e-06 -8.162925 -1e-06 -1.861899 -22.861471 -6.167942 1e-06 -3e-06 0.0 -175.786224 -0.652277 -7.99643 9.871855 -0.001496 -0.024191 -80.785454 -0.12179 -3.110433 -4.198143 1.482628 2.184855 -1.0 -0.0 0.0 1.22671 -5.872794 -0.950058 14.087938 -0.075412 0.103816 -81.532944 -3.085744 -5.8867 -3.906059 0.661319 1.714436 -1.000002 0.0 0.0 
0.0 0.0 0.0 0.0 -0.0 0.0 0.873916 99.750153 1.426625 91.143013 2.409257 89.7995 -1.657782 -0.605561 0.050256 -11.489712 -0.681095 0.602853 18.228621 -1.810417 -1.809807 18.083517 3.202322 2.534867 -2.5678 -0.72319 -1.023865 -33.060452 -0.362233 -1.586424 6e-06 -0.0 0.0 0.0199 0.005866 -0.017258 0.037242 -0.000452 -0.011171 0.036619 0.010203 -0.023872 -102.639961 -76.5103 114.013443 48.585209 -65.731621 -4.209843 25.246634 -0.007402 0.011234 2.707208 6.812984 11.119766 17.636629 -26.322731 52.411186 -19.466665 -14.395596 29.410393 -1e-06 -8.774821 0.0 15.859863 -18.050335 6.104628 -0.609776 -1.795654 -3.889327 -4.807087 -11.046811 -2.93785 6e-06 -20.976019 -2e-06 -5.019969 -25.03356 -4.03188 7e-06 0.0 -4e-06 -10.634532 -5.686971 -3.565586 10.573274 -17.922955 -3.113899 4e-06 -13.821211 -3e-06 -0.501777 -31.181507 -4.027012 -11.473955 -59.316395 7.310764 -13.982712 -7.150196 -2.87504 13.772729 -8.401495 -3.21824 0.347737 -34.211559 0.771655 -0.963029 -17.73337 2.621023 0.0 1e-06 -1e-06 -17.346418 -20.095221 -4.201783 21.757557 -1.638378 3.866428 3e-06 -6.338824 1e-06 -1.697586 -22.591747 -6.194006 -1e-06 -4e-06 -1e-06 57.187061 -78.58596 135.853256 48.598675 -65.583412 -10.878351 26.94776 -0.163892 0.0221 4.916259 9.604915 9.945083 22.182119 -20.375895 49.933323 -16.701818 -16.74353 28.476534 -5e-06 -12.690601 -3e-06 16.016098 -17.63294 2.888824 -0.105918 -1.513856 -4.275882 -5.039042 -5.612873 -2.953557 6e-06 -11.020527 -3e-06 -6.111295 -15.895334 -3.840469 -1e-06 0.0 -1e-06 -10.283369 -5.680288 -4.341838 11.028296 -11.302406 -2.372638 -1.384266 -14.238583 -6.32012 -0.625435 -26.924191 -3.827603 -4.340489 -49.848618 -3.466151 -13.708524 -7.363477 -3.720942 18.141151 -14.052741 -3.242678 8e-06 -18.787271 -2e-06 -0.429711 -8.456047 2.555505 1e-06 0.0 -2e-06 -15.923531 -20.094482 -5.473588 30.419214 -7.190831 1.735925 2e-06 -8.162924 -2e-06 -1.861897 -22.861473 -6.167943 0.0 -4e-06 -1e-06 -175.776932 -0.629336 -7.967861 9.828606 -0.007005 -0.021445 -80.771965 -0.157292 -3.089996 -4.161312 1.475149 2.183099 -1.0 0.0 0.0 1.191608 -5.892753 -0.984664 14.140878 -0.075998 0.106249 -81.563118 -3.086386 -5.923113 -3.852914 0.65696 1.714883 -1.000003 0.0 0.0 
